Coordinates
version=1
nRows=13
nColumns=40
inDegrees=yes

Units are S.I. units (second, meters, Newtons, ...)
Angles are in degrees.

endheader
time	pelvis_tilt	pelvis_list	pelvis_rotation	pelvis_tx	pelvis_ty	pelvis_tz	hip_flexion_r	hip_adduction_r	hip_rotation_r	knee_angle_r	knee_angle_r_beta	ankle_angle_r	subtalar_angle_r	mtp_angle_r	hip_flexion_l	hip_adduction_l	hip_rotation_l	knee_angle_l	knee_angle_l_beta	ankle_angle_l	subtalar_angle_l	mtp_angle_l	lumbar_extension	lumbar_bending	lumbar_rotation	arm_flex_r	arm_add_r	arm_rot_r	elbow_flex_r	pro_sup_r	wrist_flex_r	wrist_dev_r	arm_flex_l	arm_add_l	arm_rot_l	elbow_flex_l	pro_sup_l	wrist_flex_l	wrist_dev_l
     15.83250000	     -1.79461981	     -5.46777773	      4.06153900	      0.87635843	      0.93489986	      0.48359287	      4.21247458	      6.10751156	    -19.49060580	      8.90174902	      8.90174902	      9.20051959	      3.76647134	     -6.69071348	     31.52752804	    -11.37117104	     -0.80374152	     40.96897577	     40.96897577	     11.40776887	    -18.15921183	     15.25007862	     -8.38136668	      7.17680577	      4.91135393	     30.94753722	    -16.67711133	    -11.27585328	     45.71400246	     46.11941879	      0.00000000	      0.00000000	      0.32097547	     -6.24348043	      2.75788113	     23.99191880	     45.16995305	      0.00000000	      0.00000000
     15.84500000	     -1.93178254	     -5.35149809	      4.28575571	      0.87514037	      0.93439388	      0.48343394	      3.78629625	      6.06337931	    -19.46489376	      8.66491990	      8.66491990	      9.51689313	      3.63266537	     -6.86181594	     31.73633982	    -10.68750617	     -0.41923647	     37.30580428	     37.30580428	     11.15810623	    -17.18576141	     15.28870849	     -8.26571474	      6.99357686	      5.21297053	     32.52979518	    -17.15654709	    -11.43790688	     46.65948868	     46.09793465	      0.00000000	      0.00000000	     -0.96371509	     -6.11632096	      2.98813955	     23.63074802	     45.10352849	      0.00000000	      0.00000000
     15.85750000	     -1.97416225	     -5.32458730	      4.59725208	      0.87401008	      0.93383448	      0.48311980	      3.18649785	      6.13382801	    -19.54441574	      8.27804732	      8.27804732	      9.76750175	      3.69952314	     -7.15774112	     31.82111009	    -10.06547191	      0.16484927	     33.73148247	     33.73148247	     10.67454725	    -15.95585994	     14.60510168	     -8.28009053	      6.94003350	      5.02288255	     34.17022310	    -17.20915160	    -11.64696612	     48.17691428	     46.05412731	      0.00000000	      0.00000000	     -2.46363202	     -6.06339770	      3.41297152	     23.31891968	     44.99460339	      0.00000000	      0.00000000
     15.87000000	     -2.19988640	     -5.37320717	      4.88331887	      0.87281769	      0.93290670	      0.48275164	      2.87548659	      6.25254751	    -19.72811247	      8.04895222	      8.04895222	     10.10847066	      3.59488719	     -7.37888862	     32.09949621	     -9.60501635	      0.49355355	     30.35127388	     30.35127388	     10.50645507	    -14.15904173	     14.38511113	     -8.07002848	      6.91583203	      5.13675535	     35.63962002	    -17.59110541	    -11.83246229	     49.23795701	     46.02924635	      0.00000000	      0.00000000	     -3.70372589	     -5.88215375	      3.62407659	     23.07408794	     44.93056502	      0.00000000	      0.00000000
     15.88250000	     -2.16479161	     -5.47715637	      5.27247553	      0.87198687	      0.93207547	      0.48213534	      2.15253998	      6.47325402	    -19.94832167	      7.58940669	      7.58940669	     10.26353586	      3.74471500	     -8.05965264	     32.08728920	     -9.23658435	      0.79978031	     27.16659743	     27.16659743	      9.15917316	    -12.33920713	     11.07199197	     -8.10343660	      7.08220959	      4.91641126	     36.70676159	    -17.55121313	    -12.43624910	     52.06855286	     45.93852200	      0.00000000	      0.00000000	     -5.53268220	     -6.07929187	      4.93203238	     23.78591718	     44.64283907	      0.00000000	      0.00000000
     15.89500000	     -2.32240503	     -5.59746927	      5.59730596	      0.87088565	      0.93104104	      0.48145162	      1.86798833	      6.62581541	    -20.04193744	      7.56003860	      7.56003860	     10.67105864	      3.54986004	     -8.21799638	     32.39402692	     -8.83211391	      1.23194888	     24.53436830	     24.53436830	      8.99726689	    -10.65478880	     11.26705532	     -7.91370313	      7.20684115	      5.14618567	     38.06828472	    -18.12980825	    -12.60771418	     52.76272965	     45.92727860	      0.00000000	      0.00000000	     -6.58417097	     -5.95862268	      5.07900967	     23.46754420	     44.59917544	      0.00000000	      0.00000000
     15.90750000	     -2.30382200	     -5.48264316	      5.90861795	      0.87006645	      0.93046803	      0.48063388	      1.28344768	      6.56189135	    -20.05703757	      7.40619260	      7.40619260	     11.06087682	      3.41176366	     -8.31423497	     32.30227791	     -8.32607180	      1.10107373	     22.01571461	     22.01571461	      8.73106378	     -8.75012649	     11.15729337	     -7.95570762	      7.03418753	      4.88968724	     39.29396736	    -18.04735141	    -12.79031698	     54.06940530	     45.89036952	      0.00000000	      0.00000000	     -7.81840063	     -5.95492209	      5.42888875	     23.13904477	     44.51640096	      0.00000000	      0.00000000
     15.92000000	     -2.36342150	     -5.51165617	      6.24137862	      0.86925290	      0.92963086	      0.47969836	      0.80977101	      6.64008959	    -20.15186078	      7.26769927	      7.26769927	     11.43525566	      3.27509023	     -8.35774370	     32.44008412	     -7.94673048	      0.95431909	     20.10227442	     20.10227442	      8.45028910	     -7.28094835	     11.02772415	     -7.87611203	      7.07515375	      4.72967674	     40.37245270	    -18.11870511	    -13.03809662	     55.34314703	     45.85734259	      0.00000000	      0.00000000	     -8.94655867	     -5.91397672	      5.74154471	     22.94676482	     44.44149659	      0.00000000	      0.00000000
     15.93250000	     -2.48793452	     -5.62378802	      6.56818034	      0.86845325	      0.92870851	      0.47868923	      0.44618439	      6.78556617	    -20.25483985	      7.18747447	      7.18747447	     11.79761544	      3.13846137	     -8.38898917	     32.70878423	     -7.65105757	      0.79785252	     18.70580921	     18.70580921	      8.17593099	     -6.31157044	     11.07088691	     -7.73189553	      7.18568537	      4.71460135	     41.39402108	    -18.32527686	    -13.23925996	     56.29067934	     45.83565651	      0.00000000	      0.00000000	     -9.83551149	     -5.79917983	      5.90902795	     22.77760358	     44.39649671	      0.00000000	      0.00000000
     15.94500000	     -2.47886782	     -5.62284493	      6.85885709	      0.86801083	      0.92797230	      0.47759137	     -0.11481360	      6.82335300	    -20.33918678	      7.11604147	      7.11604147	     12.45650560	      3.20989641	     -7.64707361	     32.67968447	     -7.31015602	      0.37898580	     17.56680165	     17.56680165	      7.22702900	     -5.88237389	      9.22962152	     -7.75762383	      7.17645140	      4.98093875	     41.34393380	    -18.52751265	    -14.37078799	     59.53167890	     45.72658635	      0.00000000	      0.00000000	    -10.91949900	     -6.37859872	     10.06262915	     23.33897589	     43.78290196	      0.00000000	      0.00000000
     15.95750000	     -2.49845101	     -5.57175774	      7.09598379	      0.86766588	      0.92726863	      0.47641352	     -0.64509045	      6.79091917	    -20.34609860	      7.04977087	      7.04977087	     12.82438101	      3.10607761	     -7.62158338	     32.70748816	     -6.98664453	     -0.18400771	     17.06263405	     17.06263405	      7.10026416	     -5.57200997	      9.39227302	     -7.66938434	      7.09845828	      4.73196314	     42.10987650	    -18.40305168	    -14.46749190	     60.44447342	     45.69969553	      0.00000000	      0.00000000	    -11.83659280	     -6.35216731	     10.21511129	     23.21223330	     43.75940705	      0.00000000	      0.00000000
     15.97000000	     -2.60766490	     -5.59611587	      7.31049368	      0.86736095	      0.92632630	      0.47520895	     -1.07138053	      6.82675674	    -20.39612286	      6.98152137	      6.98152137	     13.25774646	      3.08783815	     -7.42432503	     32.91046106	     -6.75023068	     -0.65214832	     17.16090531	     17.16090531	      6.93346144	     -5.83511716	      9.33673610	     -7.53195946	      7.09178199	      4.59171544	     42.65675339	    -18.36253515	    -14.68579584	     61.57970651	     45.66874919	      0.00000000	      0.00000000	    -12.67894918	     -6.32027191	     10.35796139	     23.21932085	     43.74516137	      0.00000000	      0.00000000
     15.98250000	     -2.72181595	     -5.54318183	      7.41471588	      0.86728968	      0.92542420	      0.47397290	     -1.50651682	      6.75970119	    -20.36718238	      6.94853586	      6.94853586	     13.64332316	      3.07772285	     -7.40792474	     32.93422416	     -6.52442616	     -1.21495910	     17.46026130	     17.46026130	      6.73218326	     -6.28085747	      9.33576666	     -7.32092642	      6.98917898	      4.66793142	     43.11720761	    -18.52591624	    -14.80493641	     62.04687588	     45.65910626	      0.00000000	      0.00000000	    -13.28102627	     -6.30590545	     10.38566575	     23.07736536	     43.73619909	      0.00000000	      0.00000000
